<svg id="Calque_1" data-name="Calque 1" xmlns="http://www.w3.org/2000/svg" viewBox="0 0 324.92 134.36"><defs><style>.cls-1{fill:#1d1d1b;}.cls-2{fill:#00aea5;}.cls-3{fill:#fff;}</style></defs><rect class="cls-1" y="113.96" width="324.91" height="20.4"/><polygon class="cls-2" points="233.78 65.62 220.27 10.21 216.54 9.29 222.1 67.25 233.78 65.62"/><polygon class="cls-2" points="219.35 67.7 214.01 10.12 211.68 10.4 211.52 10.36 189.97 5.81 213.03 68.71 219.35 67.7"/><polygon class="cls-2" points="210.26 69.27 186.09 2.19 178.33 0.29 191.24 71.99 210.26 69.27"/><polygon class="cls-1" points="182.45 44.38 130.89 58.48 130.84 54.9 181.85 40.91 179.13 25.3 130.84 38.5 130.84 34.87 178.52 21.83 177.41 15.45 174.75 0.14 174.44 0 98.67 36.5 99.05 65.55 186.89 73 187.41 72.88 182.45 44.38"/><path class="cls-1" d="M0,107.41,0,85.13H3.76l0,22.27Zm4.94,0v-3.1H12.3v3.09Z"/><path class="cls-1" d="M12.91,88.36c-.17,1.74-.79,5.46-.79,5.46H9.72L10,89.44c-.14,0-.28,0-.35,0a2,2,0,0,1-2-2.2c0-1.8,1.08-2.26,2.71-2.26S13,85.4,13,87.21A8.79,8.79,0,0,1,12.91,88.36Z"/><path class="cls-2" d="M23.23,92.34v15H17.43l0-34.15h5.81V87.59H39.5v4.75ZM25,78.09V73.24l16.11,0v4.86Zm0,29.29v-4.85l16.11,0v4.86Z"/><path class="cls-1" d="M51.56,91v16.38H45.86l0-27.32h3.09l1.29,3.52c.69-1.5,2.5-3.15,6-3.69v4.59C52.46,84.74,51.55,87.3,51.56,91Zm16.06,0v16.38H61.87l0-16.38c0-3.41-.59-6-3.84-6.4v-4.9h.59c4,0,6.35,1.55,7.53,4.21.69-1.6,2.5-3.47,6.07-4v4.58C68.46,84.72,67.61,87.29,67.62,91Zm10.25,16.37V91c0-3.42-.59-6-3.85-6.4V79.65h.58c7.47,0,9,5.22,9,11.62l0,16.06Z"/><path class="cls-1" d="M93,103.38l-1.17,4h-3.1V104l0-34.41h5.6V83.26c1-1.49,2.94-3.1,6.67-3.63v4.69c-5.7.33-6.71,4.12-6.71,9.29,0,5.39,1.23,9,6.73,9.38v4.54C96.33,107,94,105,93,103.38Zm10.51,4.26h-.69V103c5.39-.43,6.62-4.06,6.61-9.39,0-5.18-1.23-8.91-6.62-9.23V79.52h.8c9,0,11.53,6.6,11.54,14.07S112.5,107.63,103.53,107.64Z"/><path class="cls-1" d="M139.76,107.28l-1.18-4.1c-1.07,1.86-3,3.79-7.15,4.27v-4.27c4.53-.37,7.15-3.15,7.14-7.63v-.86l-7.73.86c-4.75.54-6.35,1.5-6.35,3.69,0,2.35,1.82,3.68,5.13,3.94v4.38h-.32c-5.87.06-10.67-2.5-10.68-8.26,0-5.07,3.36-7.15,11.36-8.07l8.59-1c-.17-3.73-1.5-5.87-6.3-6.13V79.55c10.35.25,11.9,5,11.91,12.2v15.53ZM125,89.58l-5.54.06c0-5.49,2.23-9.82,11.08-10.09v4.53C126.24,84.35,125,86.38,125,89.58Z"/><path class="cls-1" d="M154.73,92.12l0,15.15H149L149,80h3l1.34,3.78c.91-1.92,3.73-4.32,9.71-4.06v5.07C156.06,84.22,154.73,87.26,154.73,92.12Z"/><path class="cls-1" d="M163.86,93.66c0-7,2.76-13.61,12.52-14v4.64c-5.18.32-6.72,4.27-6.72,9.29s1.5,8.8,6.73,9.17v4.91C166.48,107.21,163.86,100.65,163.86,93.66Zm19.95-2.79c-.38-3.9-1.82-6.14-5.61-6.51V79.67c7.73.31,11.42,4.63,11.42,11.19Zm-5.59,16.81v-5c3.78-.27,5.22-2.45,5.59-6.14h5.82C189.63,103.13,186,107.4,178.22,107.68Z"/><path class="cls-1" d="M214.12,107.22,213,103.11c-1.07,1.87-3,3.79-7.15,4.28v-4.27c4.53-.38,7.14-3.16,7.14-7.64v-.85l-7.74.86c-4.74.54-6.34,1.5-6.34,3.69s1.82,3.67,5.12,3.94v4.37h-.32C197.8,107.55,193,105,193,99.23c0-5.07,3.35-7.15,11.36-8.06l8.59-1c-.17-3.74-1.5-5.87-6.31-6.13V79.48c10.35.26,11.9,5.06,11.91,12.21v15.52Zm-14.74-17.7-5.55.06c0-5.5,2.24-9.82,11.09-10.1V84C200.61,84.29,199.38,86.32,199.38,89.52Z"/><path class="cls-1" d="M234,107.52c-9,0-11.69-6.55-11.69-14s2.54-14.09,11.61-14.1h.86v4.8c-5.55.33-6.66,4.07-6.66,9.29s1.13,9,6.68,9.33v4.7Zm11.74-.38-1.28-3.9c-.86,1.6-3.2,3.63-7.84,4.17v-4.69c5.44-.33,6.67-4,6.66-9.24,0-5-1-8.91-6.67-9.28V79.61c3.68.43,5.66,2,6.62,3.52V69.47h5.6l0,34.41v3.31Z"/><path class="cls-1" d="M259.35,95.76c.33,4.22,2.25,6.77,6.25,7.2v4.43c-9.71-.58-12.17-6.93-12.17-13.92s2.49-13.34,12.15-13.88V84c-4.58.33-5.91,3.53-6.18,7.27l14,0s.06,0,0,0,.06,0,0,0c.05-3.52-1.5-6.83-6-7.2V79.48c9.82.15,12.6,7.73,11.92,16.26Zm-5-21.18V69.89l24.28,3.61v4.74Zm13.05,32.86v-4.38c4.16-.16,5.49-2.14,6-4.27h6C278.94,103.37,275.85,107.38,267.42,107.44Z"/><path class="cls-1" d="M289.7,92l0,15.15H284l0-27.32h3l1.33,3.78c.91-1.92,3.73-4.32,9.71-4.06v5.07C291,84.1,289.7,87.14,289.7,92Z"/><path class="cls-1" d="M304.86,95.72c.32,4.22,2.25,6.78,6.25,7.2v4.43c-9.71-.58-12.17-6.93-12.17-13.92s2.49-13.34,12.15-13.88v4.37c-4.59.33-5.92,3.53-6.18,7.27l14,0s.05,0,0,0,.05-.05,0-.05c.05-3.52-1.5-6.83-6-7.2V79.44c9.82.15,12.6,7.73,11.91,16.26Zm8.07,11.68V103c4.16-.16,5.5-2.14,6-4.27h6C324.45,103.33,321.36,107.34,312.93,107.4Z"/><path class="cls-3" d="M14.47,129.29V118.85h7.68v5.45l-1.52,1.52H16.38v3.47Zm1.91-5.22h3.46l.39-.4V120.6H16.38Z"/><path class="cls-3" d="M23.64,129.29v-8.92l1.52-1.52h6.16v10.44H29.4V125l-3.85,1.58v2.68Zm1.91-4.58,3.85-1.58V120.6H26l-.4.38Z"/><path class="cls-3" d="M32.82,129.29V118.85h1.9v8.7h4v1.74Z"/><path class="cls-3" d="M40.23,129.29v-8.92l1.52-1.52h6.16v10.44H46V125l-3.85,1.58v2.68Zm1.91-4.58L46,123.13V120.6H42.54l-.4.38Z"/><path class="cls-3" d="M49.4,129.29v-1.74h1.88v-7H49.4v-1.75h5.67v1.75H53.19v7h1.88v1.74Z"/><path class="cls-3" d="M56.56,129.29V126h1.91v1.57h3.46l.39-.39V125.8l-5.76-2.36v-3.07l1.52-1.52h6.16v3.31H62.32V120.6H58.87l-.4.38v1.36l5.77,2.36v3.07l-1.52,1.52Z"/><path class="cls-3" d="M70.3,129.29V118.85h6.16L78,120.37v7.4l-1.52,1.52Zm1.91-1.74h3.46l.38-.39V121l-.38-.38H72.21Z"/><path class="cls-3" d="M79.47,129.29V118.85H85.9v1.75H81.38v2.25H84.9v1.74H81.38v3H85.9v1.74Z"/><path class="cls-3" d="M87.39,129.29V126H89.3v1.57h3.46l.39-.39V125.8l-5.76-2.36v-3.07l1.52-1.52h6.16v3.31H93.15V120.6H89.7l-.4.38v1.36l5.77,2.36v3.07l-1.52,1.52Z"/><path class="cls-3" d="M101.13,129.29V126H103v1.57h3.46l.38-.39V125.8l-5.75-2.36v-3.07l1.52-1.52h6.16v3.31h-1.93V120.6h-3.44l-.4.38v1.36l5.77,2.36v3.07l-1.52,1.52Z"/><path class="cls-3" d="M110.3,129.29V118.85H118v5.45l-1.52,1.52h-4.25v3.47Zm1.91-5.22h3.46l.39-.4V120.6h-3.85Z"/><path class="cls-3" d="M119.47,129.29V118.85h6.43v1.75h-4.52v2.25h3.52v1.74h-3.52v3h4.52v1.74Z"/><path class="cls-3" d="M127.39,129.29v-8.92l1.52-1.52h5.91v3.31h-1.91V120.6H129.7l-.4.38v6.57h3.21l.4-.39v-1.61h1.91v2.22l-1.52,1.52Z"/><path class="cls-3" d="M139.07,129.29V120.6h-2.76v-1.75h7.43v1.75H141v8.69Z"/><path class="cls-3" d="M145.23,129.29v-8.92l1.52-1.52h6.16v10.44H151V125l-3.85,1.58v2.68Zm1.91-4.58,3.85-1.58V120.6h-3.45l-.4.38Z"/><path class="cls-3" d="M154.4,129.29v-8.92l1.52-1.52h5.91v3.31h-1.91V120.6h-3.21l-.4.38v6.57h3.21l.4-.39v-1.61h1.91v2.22l-1.52,1.52Z"/><path class="cls-3" d="M163.32,129.29V118.85h1.91v8.7h4v1.74Z"/><path class="cls-3" d="M170.73,129.29V118.85h6.43v1.75h-4.52v2.25h3.52v1.74h-3.52v3h4.52v1.74Z"/><path class="cls-3" d="M178.66,129.29V126h1.9v1.57H184l.39-.39V125.8l-5.75-2.36v-3.07l1.52-1.52h6.16v3.31h-1.93V120.6H181l-.41.38v1.36l5.78,2.36v3.07l-1.52,1.52Z"/><path class="cls-2" d="M192.39,129.29V118.85h6.43v1.75H194.3v2.25h3.52v1.74H194.3v3h4.52v1.74Z"/><path class="cls-2" d="M203.07,129.29V120.6h-2.76v-1.75h7.43v1.75H205v8.69Z"/><path class="cls-2" d="M213.8,129.29V118.85H220l1.52,1.52v7.4L220,129.29Zm1.9-1.74h3.46l.39-.39V121l-.39-.38H215.7Z"/><path class="cls-2" d="M223,129.29V118.85h6.43v1.75h-4.52v2.25h3.52v1.74h-3.52v3h4.52v1.74Z"/><path class="cls-2" d="M230.89,129.29V126h1.91v1.57h3.46l.38-.39V125.8l-5.75-2.36v-3.07l1.52-1.52h6.16v3.31h-1.93V120.6H233.2l-.4.38v1.36l5.77,2.36v3.07l-1.52,1.52Z"/><path class="cls-2" d="M244.62,129.29v-8.92l1.53-1.52h5.9v3.31h-1.91V120.6h-3.2l-.41.38v6.57h3.21l.4-.39v-1.61h1.91v2.22l-1.52,1.52Z"/><path class="cls-2" d="M253.54,129.29v-8.92l1.53-1.52h6.27v8.92l-1.52,1.52Zm1.91-1.74H259l.41-.39V120.6h-3.58l-.41.38Z"/><path class="cls-2" d="M262.84,129.29V118.85h2.05l3.84,7.37v-7.37h1.91v10.44h-2.06l-3.84-7.37v7.37Z"/><path class="cls-2" d="M279.93,130.16l-1.91-.52v-.35h-4.37l-1.52-1.52v-7.4l1.52-1.52h6.28v3.31H278V120.6h-3.58l-.4.38v6.18l.4.39H278v-2.61h-2v-1.73h3.89Z"/><path class="cls-2" d="M281.42,129.29V118.85h6.28l1.52,1.52v3.57l-1.89.76,2.16,4.59h-2.12l-1.8-3.86-2.24.91v2.95Zm1.91-4.85,4-1.62V121l-.4-.38h-3.58Z"/><path class="cls-2" d="M290.68,129.29V118.85h6.43v1.75h-4.52v2.25h3.52v1.74h-3.52v3h4.52v1.74Zm2-11v-1l1.48-1.13h.95v1l-1.47,1.13Z"/><path class="cls-2" d="M298.6,129.29V126h1.91v1.57H304l.39-.39V125.8l-5.76-2.36v-3.07l1.52-1.52h6.16v3.31h-1.92V120.6h-3.45l-.4.38v1.36l5.77,2.36v3.07l-1.52,1.52Z"/></svg>